<svg width="512" xmlns="http://www.w3.org/2000/svg" height="512" id="screenshot-eeaf4e3b-4587-8029-8007-9f00564fc705" viewBox="0 0 512 512" xmlns:xlink="http://www.w3.org/1999/xlink" fill="none" version="1.1"><g id="shape-eeaf4e3b-4587-8029-8007-9f00564fc705"><defs><clipPath id="frame-clip-eeaf4e3b-4587-8029-8007-9f00564fc705-render-1" class="frame-clip frame-clip-def"><rect rx="0" ry="0" x="0" y="0" width="512" height="512" transform="matrix(1.000000, 0.000000, 0.000000, 1.000000, 0.000000, 0.000000)"/></clipPath></defs><g class="frame-container-wrapper"><g class="frame-container-blur"><g class="frame-container-shadows"><g clip-path="url(#frame-clip-eeaf4e3b-4587-8029-8007-9f00564fc705-render-1)" fill="none"><g class="fills" id="fills-eeaf4e3b-4587-8029-8007-9f00564fc705"><rect rx="0" ry="0" x="0" y="0" width="512" height="512" transform="matrix(1.000000, 0.000000, 0.000000, 1.000000, 0.000000, 0.000000)" class="frame-background"/></g><g class="frame-children"><g id="shape-eeaf4e3b-4587-8029-8007-9f00565281d5" width="480" height="480" rx="0" ry="0" style="fill: rgb(0, 0, 0);"><g id="shape-eeaf4e3b-4587-8029-8007-9f0056531ef4" style="display: none;"><g class="fills" id="fills-eeaf4e3b-4587-8029-8007-9f0056531ef4"><rect width="512" height="512" x="0" transform="matrix(1.000000, 0.000000, 0.000000, 1.000000, 0.000000, 0.000000)" style="fill: none;" ry="0" fill="none" rx="0" y="0"/></g></g><g id="shape-eeaf4e3b-4587-8029-8007-9f0056531ef5"><g class="fills" id="fills-eeaf4e3b-4587-8029-8007-9f0056531ef5"><ellipse cx="256.00000000000006" cy="256.00000000000006" rx="234.66666666666669" ry="234.66666666666669" transform="matrix(1.000000, 0.000000, 0.000000, 1.000000, 0.000000, 0.000000)" style="fill: rgb(26, 26, 24);"/></g></g><g id="shape-eeaf4e3b-4587-8029-8007-9f0056531ef6"><g class="fills" id="fills-eeaf4e3b-4587-8029-8007-9f0056531ef6"><path d="M256,32C160,32,85.33331298828125,122.6666259765625,85.33331298828125,224C85.33331298828125,165.3333740234375,128,128,176,128C224,128,256,165.3333740234375,256,165.3333740234375C256,165.3333740234375,288,128,336,128C384,128,426.6666259765625,165.3333740234375,426.6666259765625,224C426.6666259765625,122.6666259765625,352,32,256,32Z" style="fill: rgb(196, 138, 0);"/></g><g id="strokes-d4b0998a-566b-801a-8007-9f005d8bb66e-eeaf4e3b-4587-8029-8007-9f0056531ef6" class="strokes"><g class="stroke-shape"><path d="M256,32C160,32,85.33331298828125,122.6666259765625,85.33331298828125,224C85.33331298828125,165.3333740234375,128,128,176,128C224,128,256,165.3333740234375,256,165.3333740234375C256,165.3333740234375,288,128,336,128C384,128,426.6666259765625,165.3333740234375,426.6666259765625,224C426.6666259765625,122.6666259765625,352,32,256,32Z" style="fill: none; stroke-width: 5; stroke: rgb(26, 26, 24); stroke-opacity: 1;"/></g></g></g><g id="shape-eeaf4e3b-4587-8029-8007-9f0056534c70"><g class="fills" id="fills-eeaf4e3b-4587-8029-8007-9f0056534c70"><path d="M480,256C480,160,389.3333740234375,85.33331298828125,288,85.33331298828125C346.6666259765625,85.33331298828125,384,128,384,176C384,224,346.6666259765625,256,346.6666259765625,256C346.6666259765625,256,384,288,384,336C384,384,346.6666259765625,426.6666259765625,288,426.6666259765625C389.3333740234375,426.6666259765625,480,352,480,256Z" style="fill: rgb(58, 138, 138);"/></g><g id="strokes-d4b0998a-566b-801a-8007-9f005d8bd4ec-eeaf4e3b-4587-8029-8007-9f0056534c70" class="strokes"><g class="stroke-shape"><path d="M480,256C480,160,389.3333740234375,85.33331298828125,288,85.33331298828125C346.6666259765625,85.33331298828125,384,128,384,176C384,224,346.6666259765625,256,346.6666259765625,256C346.6666259765625,256,384,288,384,336C384,384,346.6666259765625,426.6666259765625,288,426.6666259765625C389.3333740234375,426.6666259765625,480,352,480,256Z" style="fill: none; stroke-width: 5; stroke: rgb(26, 26, 24); stroke-opacity: 1;"/></g></g></g><g id="shape-eeaf4e3b-4587-8029-8007-9f0056534c71"><g class="fills" id="fills-eeaf4e3b-4587-8029-8007-9f0056534c71"><path d="M256,480C352,480,426.6666259765625,389.3333740234375,426.6666259765625,288C426.6666259765625,346.6666259765625,384,384,336,384C288,384,256,346.6666259765625,256,346.6666259765625C256,346.6666259765625,224,384,176,384C128,384,85.33331298828125,346.6666259765625,85.33331298828125,288C85.33331298828125,389.3333740234375,160,480,256,480Z" style="fill: rgb(176, 80, 80);"/></g><g id="strokes-d4b0998a-566b-801a-8007-9f005d8bd4ed-eeaf4e3b-4587-8029-8007-9f0056534c71" class="strokes"><g class="stroke-shape"><path d="M256,480C352,480,426.6666259765625,389.3333740234375,426.6666259765625,288C426.6666259765625,346.6666259765625,384,384,336,384C288,384,256,346.6666259765625,256,346.6666259765625C256,346.6666259765625,224,384,176,384C128,384,85.33331298828125,346.6666259765625,85.33331298828125,288C85.33331298828125,389.3333740234375,160,480,256,480Z" style="fill: none; stroke-width: 5; stroke: rgb(26, 26, 24); stroke-opacity: 1;"/></g></g></g><g id="shape-eeaf4e3b-4587-8029-8007-9f0056534c72"><g class="fills" id="fills-eeaf4e3b-4587-8029-8007-9f0056534c72"><path d="M32,256C32,352,122.66668701171875,426.6666259765625,224,426.6666259765625C165.33331298828125,426.6666259765625,128,384,128,336C128,288,165.33331298828125,256,165.33331298828125,256C165.33331298828125,256,128,224,128,176C128,128,165.33331298828125,85.33331298828125,224,85.33331298828125C122.66668701171875,85.33331298828125,32,160,32,256Z" style="fill: rgb(176, 112, 64);"/></g><g id="strokes-d4b0998a-566b-801a-8007-9f005d8c27e5-eeaf4e3b-4587-8029-8007-9f0056534c72" class="strokes"><g class="stroke-shape"><path d="M32,256C32,352,122.66668701171875,426.6666259765625,224,426.6666259765625C165.33331298828125,426.6666259765625,128,384,128,336C128,288,165.33331298828125,256,165.33331298828125,256C165.33331298828125,256,128,224,128,176C128,128,165.33331298828125,85.33331298828125,224,85.33331298828125C122.66668701171875,85.33331298828125,32,160,32,256Z" style="fill: none; stroke-width: 5; stroke: rgb(26, 26, 24); stroke-opacity: 1;"/></g></g></g><g id="shape-eeaf4e3b-4587-8029-8007-9f0056534c73"><g class="fills" id="fills-eeaf4e3b-4587-8029-8007-9f0056534c73"><ellipse cx="256" cy="256" rx="14.933333333333394" ry="14.933333333333394" transform="matrix(1.000000, 0.000000, 0.000000, 1.000000, 0.000000, 0.000000)" style="fill: rgb(196, 138, 0);"/></g><g id="strokes-d4b0998a-566b-801a-8007-9f005d8c27e6-eeaf4e3b-4587-8029-8007-9f0056534c73" class="strokes"><g class="stroke-shape"><ellipse cx="256" cy="256" rx="14.933333333333394" ry="14.933333333333394" transform="matrix(1.000000, 0.000000, 0.000000, 1.000000, 0.000000, 0.000000)" style="fill: none; stroke-width: 4; stroke: rgb(26, 26, 24); stroke-opacity: 1;"/></g></g></g></g></g></g></g></g></g></g></svg>